<svg width="37" height="37" viewBox="0 0 37 37" fill="none" xmlns="http://www.w3.org/2000/svg">
<path d="M3.85417 11.6704C3.85417 7.40617 7.59579 3.85417 12.3333 3.85417C15.8406 3.85417 18.8207 5.81208 20.1157 8.56087C20.2072 8.73825 20.364 8.87318 20.5531 8.93728C20.7421 9.00139 20.9486 8.98966 21.1292 8.90457C21.3098 8.81948 21.4503 8.66766 21.5212 8.48107C21.5921 8.29447 21.5878 8.08765 21.5093 7.90412C19.9492 4.59108 16.411 2.3125 12.3333 2.3125C6.85425 2.3125 2.3125 6.44879 2.3125 11.6704C2.3125 13.6746 2.98775 15.5261 4.12704 17.0431L2.96463 20.4595C2.52833 21.7452 3.959 22.8583 5.09829 22.1229L8.12613 20.165C8.67393 20.4034 9.24589 20.5936 9.842 20.7354C9.94185 20.7632 10.0463 20.7706 10.149 20.7571C10.2518 20.7437 10.3508 20.7096 10.4401 20.657C10.5294 20.6044 10.6072 20.5343 10.6688 20.4509C10.7304 20.3675 10.7745 20.2726 10.7986 20.1718C10.8226 20.071 10.8261 19.9664 10.8088 19.8642C10.7915 19.762 10.7538 19.6643 10.6979 19.577C10.642 19.4898 10.569 19.4147 10.4834 19.3562C10.3978 19.2978 10.3013 19.2572 10.1997 19.2369C9.57825 19.0881 8.97458 18.8731 8.399 18.5956L8.00896 18.406L4.52633 20.6568L5.85988 16.7348L5.58546 16.4033C4.47238 15.0769 3.85973 13.402 3.85417 11.6704ZM23.1096 18.2996C23.9498 17.6783 25.0598 17.6135 25.9077 17.871C28.1092 18.5432 28.7737 20.9775 28.174 22.7797C27.7115 24.2026 26.6847 25.2417 25.7165 25.9139C25.2742 26.221 24.8009 26.4809 24.3044 26.6893C23.8989 26.8558 23.4688 26.9792 23.125 26.9792C22.7812 26.9792 22.3542 26.8558 21.9487 26.6909C21.4535 26.4856 20.9821 26.2272 20.5427 25.92C19.5776 25.2479 18.554 24.2088 18.076 22.7843C17.4748 20.9744 18.1423 18.5632 20.3346 17.8725L20.3423 17.871C21.2103 17.6074 22.2786 17.7076 23.1096 18.2996ZM25.4591 19.3448C24.8116 19.149 24.0993 19.3248 23.7586 19.8166L23.1528 20.6953L22.5099 19.8428C22.1245 19.334 21.4076 19.1598 20.7925 19.3448C19.6578 19.704 19.1259 21.053 19.5391 22.294C19.8783 23.3054 20.629 24.1009 21.4245 24.6543C21.8177 24.9287 22.2062 25.1322 22.5315 25.2633C22.6938 25.3291 22.8311 25.3758 22.9431 25.4036L23.0757 25.4313C23.1065 25.4365 23.1229 25.4385 23.125 25.4375L23.1728 25.4329L23.3069 25.4036C23.4189 25.3748 23.5577 25.3275 23.7232 25.2617C24.1149 25.0962 24.4884 24.8906 24.8378 24.6482C25.6379 24.0932 26.3841 23.2977 26.7078 22.3017L26.7094 22.2956C27.1256 21.0468 26.5845 19.6902 25.4591 19.3448Z" fill="black" fill-opacity="0.69"/>
<path d="M23.1252 11.5625C16.7935 11.5625 11.5627 16.3416 11.5627 22.3541C11.5627 28.3666 16.7935 33.1458 23.1252 33.1458C24.8827 33.1458 26.5507 32.7804 28.0446 32.1237L31.6367 34.4439C32.8639 35.2378 34.404 34.0369 33.9338 32.6525L32.5555 28.601C33.9344 26.8101 34.6839 24.6143 34.6877 22.3541C34.6877 16.3416 29.4568 11.5625 23.1252 11.5625ZM13.1043 22.3541C13.1043 17.2975 17.5366 13.1041 23.1252 13.1041C28.7137 13.1041 33.146 17.2975 33.146 22.3541C33.1401 24.4051 32.4144 26.3889 31.0956 27.9596L30.8212 28.2926L32.4738 33.1489L28.1618 30.3631L27.7717 30.5512C26.3842 31.2233 24.8056 31.6041 23.1252 31.6041C17.5366 31.6041 13.1043 27.4108 13.1043 22.3541ZM8.47933 8.47913C8.27489 8.47913 8.07883 8.56034 7.93427 8.7049C7.78971 8.84946 7.7085 9.04552 7.7085 9.24996C7.7085 9.4544 7.78971 9.65046 7.93427 9.79502C8.07883 9.93958 8.27489 10.0208 8.47933 10.0208H16.1877C16.3921 10.0208 16.5882 9.93958 16.7327 9.79502C16.8773 9.65046 16.9585 9.4544 16.9585 9.24996C16.9585 9.04552 16.8773 8.84946 16.7327 8.7049C16.5882 8.56034 16.3921 8.47913 16.1877 8.47913H8.47933ZM7.7085 15.4166C7.7085 15.2122 7.78971 15.0161 7.93427 14.8716C8.07883 14.727 8.27489 14.6458 8.47933 14.6458H10.021C10.2254 14.6458 10.4215 14.727 10.5661 14.8716C10.7106 15.0161 10.7918 15.2122 10.7918 15.4166C10.7918 15.6211 10.7106 15.8171 10.5661 15.9617C10.4215 16.1062 10.2254 16.1875 10.021 16.1875H8.47933C8.27489 16.1875 8.07883 16.1062 7.93427 15.9617C7.78971 15.8171 7.7085 15.6211 7.7085 15.4166ZM8.47933 11.5625C8.27489 11.5625 8.07883 11.6437 7.93427 11.7882C7.78971 11.9328 7.7085 12.1289 7.7085 12.3333C7.7085 12.5377 7.78971 12.7338 7.93427 12.8784C8.07883 13.0229 8.27489 13.1041 8.47933 13.1041H13.1043C13.3088 13.1041 13.5048 13.0229 13.6494 12.8784C13.794 12.7338 13.8752 12.5377 13.8752 12.3333C13.8752 12.1289 13.794 11.9328 13.6494 11.7882C13.5048 11.6437 13.3088 11.5625 13.1043 11.5625H8.47933Z" fill="black" fill-opacity="0.69"/>
</svg>
