<svg width="42" height="42" viewBox="0 0 42 42" fill="none" xmlns="http://www.w3.org/2000/svg">
<path d="M34.125 8.20318C32.0748 8.20176 30.0492 8.64977 28.1909 9.51568C25.7841 5.26646 21.6284 3.15169 21.4397 3.05653C21.3031 2.98837 21.1526 2.95288 21 2.95288C20.8474 2.95288 20.6969 2.98837 20.5603 3.05653C20.3733 3.15169 16.2159 5.26646 13.8091 9.51568C11.9508 8.64977 9.92519 8.20176 7.875 8.20318C7.61393 8.20318 7.36355 8.30689 7.17894 8.49149C6.99434 8.6761 6.89063 8.92648 6.89062 9.18755V15.7501C6.89534 19.32 8.25156 22.7557 10.6865 25.3663C13.1215 27.9769 16.4547 29.5688 20.0156 29.8217V36.4695L13.5647 33.244C13.331 33.1274 13.0606 33.1084 12.8129 33.1912C12.5653 33.2739 12.3606 33.4517 12.244 33.6854C12.1274 33.919 12.1084 34.1894 12.1911 34.4371C12.2739 34.6848 12.4517 34.8895 12.6853 35.0061L20.5603 38.9436C20.6969 39.0117 20.8474 39.0472 21 39.0472C21.1526 39.0472 21.3031 39.0117 21.4397 38.9436L29.3147 35.0061C29.4304 34.9483 29.5336 34.8684 29.6184 34.7707C29.7032 34.6731 29.7679 34.5598 29.8089 34.4371C29.8499 34.3145 29.8663 34.185 29.8572 34.056C29.8481 33.927 29.8138 33.8011 29.756 33.6854C29.6983 33.5697 29.6183 33.4665 29.5207 33.3817C29.4231 33.2969 29.3097 33.2322 29.1871 33.1912C29.0644 33.1502 28.9349 33.1338 28.8059 33.1428C28.6769 33.1519 28.551 33.1863 28.4353 33.244L21.9844 36.4695V29.8217C25.5453 29.5688 28.8785 27.9769 31.3135 25.3663C33.7484 22.7557 35.1047 19.32 35.1094 15.7501V9.18755C35.1094 8.92648 35.0057 8.6761 34.8211 8.49149C34.6365 8.30689 34.3861 8.20318 34.125 8.20318ZM21 5.0663C22.0598 5.6963 24.7849 7.52724 26.4682 10.4705C23.997 12.0738 22.0859 14.4063 21 17.1446C19.9141 14.4063 18.003 12.0738 15.5318 10.4705C17.2151 7.51903 19.9402 5.69466 21 5.0663ZM8.85938 15.7501V10.2113C11.8974 10.4626 14.7302 11.846 16.7964 14.0872C18.8626 16.3285 20.0116 19.2642 20.0156 22.3126V27.8513C16.9775 27.6003 14.1445 26.2171 12.0782 23.9758C10.0118 21.7344 8.86302 18.7985 8.85938 15.7501ZM33.1406 15.7501C33.137 18.7985 31.9882 21.7344 29.9218 23.9758C27.8555 26.2171 25.0225 27.6003 21.9844 27.8513V22.3126C21.9884 19.2642 23.1374 16.3285 25.2036 14.0872C27.2698 11.846 30.1026 10.4626 33.1406 10.2113V15.7501Z" fill="#5D5959"/>
</svg>
