<svg width="37" height="37" viewBox="0 0 37 37" fill="none" xmlns="http://www.w3.org/2000/svg">
<path d="M30.0623 9.25L27.8007 10.9458C27.267 11.3461 26.6179 11.5625 25.9507 11.5625H20.7738C20.2721 11.5627 19.7828 11.718 19.3728 12.0071C18.9628 12.2962 18.6522 12.705 18.4836 13.1775C18.3149 13.65 18.2965 14.163 18.4308 14.6464C18.5651 15.1298 18.8455 15.5598 19.2337 15.8776L22.317 18.3998C23.5112 19.3768 24.442 20.6371 25.0247 22.0658C25.6074 23.4945 25.8235 25.0463 25.6532 26.5799L25.6223 26.8574C25.4997 27.9613 25.2285 29.0435 24.816 30.0748L23.8957 32.375M3.854 16.1875L8.84592 15.355C9.33014 15.2742 9.82666 15.3101 10.2942 15.4599C10.7617 15.6096 11.1867 15.8689 11.5338 16.216C11.881 16.5631 12.1402 16.9881 12.2899 17.4557C12.4397 17.9232 12.4757 18.4197 12.3948 18.9039L12.1867 20.148C12.0068 21.2333 12.1791 22.3476 12.6785 23.3277C13.1779 24.3079 13.978 25.1024 14.9617 25.5947C15.7474 25.987 16.3755 26.6357 16.7423 27.4336C17.109 28.2315 17.1922 29.1307 16.9782 29.9823L16.1873 33.1458" stroke="#5D5959" stroke-width="2"/>
<path d="M18.4998 33.1459C26.5885 33.1459 33.1457 26.5887 33.1457 18.5C33.1457 10.4113 26.5885 3.85419 18.4998 3.85419C10.4112 3.85419 3.854 10.4113 3.854 18.5C3.854 26.5887 10.4112 33.1459 18.4998 33.1459Z" stroke="#5D5959" stroke-width="2"/>
</svg>
