<svg width="42" height="42" viewBox="0 0 42 42" fill="none" xmlns="http://www.w3.org/2000/svg">
<path d="M11.9315 38.4999V33.5002C11.41 28.2904 5.25 25.5009 5.25 17.4999C5.25 9.50244 10.0223 3.40194 19.5685 3.49994C26.4408 3.57344 32.9315 7.50044 32.9315 15.5014L36.75 21.5004C36.75 25.5009 32.9315 25.5009 32.9315 25.5009C32.9315 25.5009 33.887 35.5004 25.2945 35.5004V38.4999" stroke="#5D5959" stroke-width="2.5" stroke-linecap="round" stroke-linejoin="round"/>
<path d="M19.25 21C20.1783 21 21.0685 20.6313 21.7249 19.9749C22.3813 19.3185 22.75 18.4283 22.75 17.5C22.75 16.5717 22.3813 15.6815 21.7249 15.0251C21.0685 14.3687 20.1783 14 19.25 14C18.3217 14 17.4315 14.3687 16.7751 15.0251C16.1187 15.6815 15.75 16.5717 15.75 17.5C15.75 18.4283 16.1187 19.3185 16.7751 19.9749C17.4315 20.6313 18.3217 21 19.25 21Z" stroke="#5D5959" stroke-width="2.5" stroke-linecap="round" stroke-linejoin="round"/>
<path d="M19.25 22.75C20.6424 22.75 21.9777 22.1969 22.9623 21.2123C23.9469 20.2277 24.5 18.8924 24.5 17.5C24.5 16.1076 23.9469 14.7723 22.9623 13.7877C21.9777 12.8031 20.6424 12.25 19.25 12.25C17.8576 12.25 16.5223 12.8031 15.5377 13.7877C14.5531 14.7723 14 16.1076 14 17.5C14 18.8924 14.5531 20.2277 15.5377 21.2123C16.5223 22.1969 17.8576 22.75 19.25 22.75Z" stroke="#5D5959" stroke-width="2.5" stroke-linecap="round" stroke-linejoin="round" stroke-dasharray="0.3 2"/>
</svg>
