<svg width="38" height="38" viewBox="0 0 38 38" fill="none" xmlns="http://www.w3.org/2000/svg">
<path d="M30.0832 19C30.0832 19.4199 29.9164 19.8227 29.6194 20.1196C29.3225 20.4165 28.9198 20.5834 28.4998 20.5834C28.0799 20.5834 27.6772 20.4165 27.3803 20.1196C27.0833 19.8227 26.9165 19.4199 26.9165 19C26.9165 18.5801 27.0833 18.1774 27.3803 17.8804C27.6772 17.5835 28.0799 17.4167 28.4998 17.4167C28.9198 17.4167 29.3225 17.5835 29.6194 17.8804C29.9164 18.1774 30.0832 18.5801 30.0832 19Z" fill="black"/>
<path fill-rule="evenodd" clip-rule="evenodd" d="M15.7445 5.14581H20.6718C23.582 5.14581 25.8873 5.14581 27.6908 5.38806C29.5464 5.63823 31.049 6.1639 32.2349 7.34823C33.6979 8.81281 34.165 10.773 34.3344 13.3174C35.248 13.718 35.9383 14.5682 36.0128 15.6449C36.0207 15.7415 36.0207 15.8444 36.0207 15.9394V22.0606C36.0207 22.1556 36.0207 22.2585 36.0143 22.3535C35.9383 23.4301 35.248 24.282 34.3344 24.6841C34.165 27.227 33.6979 29.1871 32.2349 30.6517C31.049 31.8361 29.5464 32.3617 27.6908 32.6119C25.8858 32.8541 23.582 32.8541 20.6718 32.8541H15.7445C12.8343 32.8541 10.529 32.8541 8.72559 32.6119C6.86992 32.3617 5.36734 31.8361 4.18142 30.6517C2.99709 29.4658 2.47142 27.9632 2.22125 26.1076C1.979 24.3026 1.979 21.9988 1.979 19.0886V18.9113C1.979 16.0011 1.979 13.6958 2.22125 11.8924C2.47142 10.0367 2.99709 8.53415 4.18142 7.34823C5.36734 6.1639 6.86992 5.63823 8.72559 5.38806C10.5306 5.14581 12.8343 5.14581 15.7445 5.14581ZM31.9325 24.9375H28.864C25.4678 24.9375 22.5608 22.3598 22.5608 19C22.5608 15.6401 25.4678 13.0625 28.8624 13.0625H31.9309C31.7504 10.9392 31.3435 9.81665 30.5534 9.02815C29.8837 8.3584 28.9653 7.95623 27.3725 7.74248C25.7464 7.52398 23.601 7.52081 20.5816 7.52081H15.8316C12.8122 7.52081 10.6683 7.52398 9.03909 7.74248C7.44784 7.95623 6.5295 8.3584 5.85975 9.02815C5.19 9.6979 4.78942 10.6162 4.57567 12.2075C4.35717 13.8351 4.354 15.979 4.354 18.9984C4.354 22.0178 4.35717 24.1632 4.57567 25.7909C4.78942 27.3821 5.19159 28.3005 5.86134 28.9702C6.53109 29.64 7.44942 30.0421 9.04225 30.2559C10.6699 30.4744 12.8138 30.4776 15.8332 30.4776H20.5832C23.6026 30.4776 25.748 30.4744 27.3757 30.2559C28.9669 30.0421 29.8853 29.64 30.555 28.9702C31.3451 28.1817 31.752 27.0607 31.9325 24.9359M8.31234 12.6666C8.31234 12.3517 8.43745 12.0497 8.66015 11.827C8.88285 11.6043 9.18489 11.4791 9.49984 11.4791H15.8332C16.1481 11.4791 16.4502 11.6043 16.6729 11.827C16.8956 12.0497 17.0207 12.3517 17.0207 12.6666C17.0207 12.9816 16.8956 13.2836 16.6729 13.5063C16.4502 13.729 16.1481 13.8541 15.8332 13.8541H9.49984C9.18489 13.8541 8.88285 13.729 8.66015 13.5063C8.43745 13.2836 8.31234 12.9816 8.31234 12.6666ZM33.1295 15.4375H28.864C26.6093 15.4375 24.9358 17.1142 24.9358 19C24.9358 20.8857 26.6093 22.5625 28.8624 22.5625H33.1659C33.4921 22.5419 33.633 22.3218 33.6441 22.1888V15.8111C33.633 15.6781 33.4921 15.4581 33.1659 15.4391L33.1295 15.4375Z" fill="#5D5959"/>
</svg>
